<svg width="644" height="361" viewBox="0 0 644 361" fill="none" xmlns="http://www.w3.org/2000/svg">
<rect x="9.22917" y="-1.739" width="312.492" height="134.462" rx="67.2312" transform="matrix(-0.837969 -0.545718 -0.581904 0.813257 659.239 168.15)" fill="#34A853" stroke="black" stroke-width="13"/>
<path d="M369.298 223.206L368.57 223.681C337.962 243.94 330.327 284.398 351.598 314.468C373.036 344.775 415.72 353.052 446.933 332.956L596.702 236.53C627.916 216.434 635.84 175.575 614.401 145.268C592.963 114.962 550.28 106.684 519.067 126.78L369.298 223.206Z" fill="#F6AD03" stroke="black" stroke-width="13"/>
<rect x="-9.22917" y="-1.739" width="312.492" height="134.462" rx="67.2312" transform="matrix(0.837969 -0.545718 0.581904 0.813257 -0.483481 158.077)" fill="#EA4235" stroke="black" stroke-width="13"/>
<rect x="-1.7115" y="-8.82522" width="312.56" height="134.434" rx="67.2168" transform="matrix(0.840807 0.541335 -0.577499 0.816392 64.7589 98.5244)" fill="#4286F5" stroke="black" stroke-width="13"/>
</svg>
